{"glyphs":{" ":{"ha":1214,"x_min":0,"x_max":0,"o":""},"A":{"ha":1128,"x_min":0,"x_max":1042,"o":"m 1040 -278 l 915 -278 l 411 1111 l 538 1111 l 1040 -278 m 14 -42 q 65 45 28 7 q 153 106 103 83 q 357 142 233 143 q 402 144 385 142 q 441 155 419 146 q 472 181 463 164 q 472 241 485 211 q 432 293 460 271 q 358 339 408 313 q 297 372 307 365 q 203 489 214 422 q 206 545 197 514 q 223 594 214 576 q 251 647 232 611 q 411 1111 371 865 q 297 660 390 858 q 260 557 264 588 q 265 502 256 529 q 294 460 274 475 q 409 392 333 432 q 542 313 485 351 q 635 224 599 274 q 653 158 653 193 q 653 149 653 153 q 604 65 646 92 q 508 38 571 44 q 443 33 478 33 q 365 34 408 33 q 299 35 321 35 q 296 35 297 35 q 168 22 231 35 q 106 3 136 15 q 83 -10 93 0 q 64 -35 72 -21 q 44 -69 53 -51 q 32 -106 36 -87 q 29 -136 29 -121 q 40 -196 29 -167 q 83 -275 56 -237 q 40 -228 40 -228 q 0 -142 6 -192 q 0 -126 0 -135 q 14 -42 0 -83 z "},"B":{"ha":1094,"x_min":0,"x_max":1011,"o":"m 1001 99 q 985 -56 1011 19 q 901 -179 958 -131 q 804 -236 858 -218 q 735 -254 772 -247 q 670 -265 697 -261 q 596 -272 643 -269 q 530 -274 549 -274 q 456 -274 511 -274 q 386 -275 400 -275 q 290 -276 357 -275 q 190 -278 222 -278 q 94 -276 158 -278 l 0 -276 l 0 1111 l 126 1111 q 615 1108 371 1111 q 694 1104 663 1107 q 764 1089 725 1101 q 831 1053 803 1076 q 883 967 868 1019 q 886 861 897 914 q 774 689 865 768 q 599 576 722 643 l 592 572 q 701 513 649 543 q 792 446 742 488 q 871 371 843 404 q 1001 99 986 233 m 792 -126 q 860 -21 835 -87 q 879 104 885 46 q 840 247 868 178 q 758 383 807 325 q 631 499 708 442 q 550 550 592 526 l 365 449 q 294 449 318 424 q 278 485 279 464 l 257 671 q 271 708 253 701 q 279 710 275 710 q 293 706 288 710 q 436 641 347 679 q 543 594 525 603 q 693 740 646 676 q 746 964 774 854 q 713 1031 736 1001 q 654 1074 689 1061 q 590 1082 624 1082 q 583 1082 588 1082 q 286 1082 435 1085 q 175 1060 210 1082 q 126 989 139 1033 l 126 -233 q 209 -235 158 -235 q 303 -236 260 -236 q 354 -236 346 -236 q 585 -225 503 -240 q 792 -126 714 -200 m 513 571 q 317 664 511 571 q 279 664 290 676 q 274 647 274 656 q 274 643 274 644 l 292 519 q 307 469 296 489 q 344 451 318 450 q 376 464 363 453 l 513 571 z "},"C":{"ha":1117,"x_min":-15,"x_max":1011,"o":"m 883 -68 q 944 -168 928 -143 q 708 -269 839 -246 q 455 -255 578 -292 q 231 -126 332 -218 q 75 92 131 -35 q 1 436 15 229 q 107 889 -14 710 q 272 1047 174 988 q 479 1111 371 1107 q 492 1111 481 1111 q 628 1088 561 1111 q 882 876 778 1035 q 1011 553 969 744 q 951 542 990 549 q 893 533 913 536 q 783 810 858 697 q 565 990 694 944 q 450 1011 510 1011 q 439 1010 444 1011 q 262 956 347 1007 q 121 821 176 904 q 31 433 17 667 q 93 139 42 257 q 226 -48 140 31 q 418 -158 313 -126 q 658 -162 526 -189 q 883 -68 790 -135 z "},"D":{"ha":1238,"x_min":0,"x_max":1132,"o":"m 1131 418 q 1132 369 1132 392 q 1075 90 1132 222 q 917 -140 1018 -42 q 710 -258 821 -233 q 533 -276 639 -275 q 125 -276 240 -279 l 0 -276 l 0 1100 q 7 1107 1 1104 q 22 1110 13 1110 q 40 1111 32 1111 q 60 1110 49 1111 q 75 1110 71 1110 q 471 1085 317 1113 q 838 939 688 1046 q 1040 713 963 849 q 1131 418 1117 576 m 821 -58 q 957 136 908 22 q 1004 372 1006 250 q 956 606 1003 492 q 826 808 910 719 q 638 954 746 896 q 411 1036 531 1013 q 208 1025 286 1060 q 156 980 178 1011 q 125 911 133 949 q 125 908 125 910 l 125 864 q 125 853 125 861 l 125 -232 q 481 -218 339 -237 q 821 -58 675 -192 z "},"E":{"ha":1133,"x_min":0,"x_max":1013,"o":"m 126 1058 l 126 475 q 168 519 143 500 q 286 560 221 560 q 331 556 310 560 q 458 472 400 539 q 547 346 492 436 q 599 301 572 303 q 630 314 617 300 q 647 346 643 328 q 651 369 650 356 q 651 393 651 382 q 651 417 650 404 q 707 538 654 489 q 832 588 760 588 q 890 578 861 588 q 775 538 828 581 q 710 435 722 496 q 706 374 706 414 q 704 324 706 335 q 657 226 699 253 q 550 231 610 197 q 467 306 519 247 q 381 376 418 360 q 301 386 343 392 q 225 357 260 381 q 136 225 160 313 q 126 167 129 196 q 125 129 125 149 q 126 93 125 111 q 140 -3 131 44 q 235 -174 163 -122 q 401 -225 290 -215 q 676 -213 529 -236 q 943 -142 824 -190 q 944 -142 944 -142 q 952 -142 950 -139 q 963 -167 954 -146 q 1010 -278 985 -221 l 821 -278 l 126 -278 l 126 -278 l 126 -271 l 125 -271 l 126 -278 l 0 -278 l 0 1111 l 1011 1111 l 1011 1058 l 126 1058 z "},"F":{"ha":1111,"x_min":0,"x_max":1007,"o":"m 126 886 l 126 885 q 126 874 126 878 l 126 479 q 165 521 143 503 q 283 561 217 561 q 328 556 306 561 q 456 474 396 539 q 543 346 489 436 q 596 301 569 303 q 626 315 613 301 q 644 346 640 328 q 648 370 647 357 q 648 394 649 383 q 649 418 647 404 q 703 539 651 489 q 828 589 756 589 q 888 579 860 589 q 772 538 825 581 q 708 435 719 496 q 703 374 704 414 q 701 324 703 335 q 654 226 696 253 q 547 231 607 197 q 464 306 517 247 q 378 376 415 360 q 299 388 340 393 q 224 358 257 382 q 133 225 157 313 q 131 213 132 219 l 131 251 l 128 192 q 131 213 129 206 l 129 76 l 129 -111 l 131 -278 l 126 -278 l 0 -278 l 0 1111 l 1007 1111 q 946 963 993 1081 q 618 1050 788 1024 q 331 1044 446 1076 q 285 1031 299 1035 q 242 1016 271 1026 q 198 996 213 1006 q 165 972 183 986 q 137 938 146 957 q 126 896 128 918 q 126 886 126 892 z "},"G":{"ha":1244,"x_min":-17,"x_max":1156,"o":"m 649 -275 q 424 -245 535 -287 q 226 -119 313 -203 q 81 88 140 -35 q 6 351 22 211 q 42 708 -15 540 q 218 983 99 875 q 490 1108 338 1090 q 789 1044 646 1126 q 1024 810 932 963 l 903 776 q 708 953 824 893 q 468 1000 593 1014 q 238 894 339 985 q 88 660 136 803 q 57 358 39 517 q 155 71 75 199 q 354 -123 235 -57 q 603 -174 474 -189 q 828 -73 729 -160 q 978 150 928 14 q 1017 440 1029 286 q 832 390 919 432 q 712 323 789 369 q 604 260 635 276 q 371 217 464 186 q 308 258 332 228 q 281 392 274 306 q 297 485 285 439 l 299 483 q 297 456 297 469 q 303 404 297 431 q 342 328 314 360 q 407 289 369 297 q 539 314 464 275 q 665 393 564 325 q 983 556 814 494 q 988 556 988 556 l 999 560 l 1000 560 l 1057 576 l 1056 576 l 1114 592 q 1133 482 1128 538 q 1098 126 1156 293 q 922 -149 1040 -42 q 649 -275 803 -257 z "},"H":{"ha":1119,"x_min":0,"x_max":997,"o":"m 875 485 q 875 482 875 483 q 871 440 875 461 q 824 361 861 386 q 729 344 792 339 q 550 390 635 351 q 482 424 533 397 q 400 463 431 451 q 240 456 304 496 q 158 335 189 424 q 125 185 133 261 q 122 111 122 147 q 149 -81 122 14 q 199 -206 165 -146 q 247 -274 232 -257 l 110 -274 l 110 -278 l 0 -278 l 0 1111 l 121 1111 l 121 524 q 143 546 131 536 q 317 586 211 607 q 485 510 386 572 q 522 485 493 504 q 565 458 551 467 q 601 436 578 449 q 644 415 624 424 q 803 401 736 375 q 875 485 860 425 m 875 -278 l 875 1111 l 996 1111 l 996 -278 l 875 -278 z "},"I":{"ha":247,"x_min":0,"x_max":122,"o":"m 0 -278 l 0 1111 l 122 1111 l 122 -278 l 0 -278 z "},"J":{"ha":1000,"x_min":-8,"x_max":879,"o":"m 878 1111 l 878 104 q 851 -43 878 32 q 775 -161 825 -118 q 472 -275 660 -260 q 181 -225 301 -290 q 64 -125 110 -187 q 4 10 18 -62 q 12 151 -8 79 q 79 283 32 222 q 124 335 93 300 q 171 388 156 369 q 215 510 221 453 q 188 572 213 546 q 128 604 163 599 q 217 576 176 608 q 265 499 257 544 q 224 331 281 431 q 178 264 219 324 q 128 169 138 204 q 119 51 110 115 q 168 -58 129 -14 q 280 -131 207 -104 q 426 -161 353 -158 q 563 -145 492 -165 q 676 -87 633 -125 q 733 -6 717 -51 q 756 104 750 39 l 756 914 q 737 957 751 938 q 708 988 722 976 q 667 1013 694 1000 q 626 1030 640 1025 q 582 1044 611 1035 q 335 1050 483 1076 q 53 963 188 1024 q 0 1111 10 1085 l 756 1111 l 878 1111 z "},"K":{"ha":1253,"x_min":0,"x_max":1121,"o":"m 1121 -160 q 1074 -233 1104 -189 q 1049 -261 1060 -253 q 1021 -269 1039 -269 q 960 -242 996 -268 q 624 78 769 -106 q 598 110 615 88 q 571 145 581 133 q 545 175 561 157 q 515 206 529 193 q 375 286 447 274 q 340 289 357 289 q 194 228 254 289 q 151 163 167 200 q 151 161 151 163 q 121 58 132 111 q 121 -26 121 58 q 121 -194 121 -110 l 121 -278 l 0 -278 l 0 1111 l 121 1111 l 121 301 q 189 407 144 361 q 344 506 240 460 q 461 551 374 518 q 594 607 549 585 q 806 771 738 676 q 859 894 846 828 q 851 1028 872 961 q 874 879 885 956 q 815 738 863 803 q 575 550 746 642 q 510 515 565 544 q 435 474 456 486 q 378 438 415 463 q 313 390 340 414 q 281 360 296 376 q 340 369 310 369 q 367 368 354 369 q 618 225 492 353 q 713 121 646 197 q 819 7 779 44 q 1121 -160 950 -112 z "},"L":{"ha":1136,"x_min":0,"x_max":1004,"o":"m 36 -278 l 47 -278 l 0 -278 l 0 1111 l 246 1111 q 151 974 192 1089 q 122 819 126 899 q 122 558 122 819 q 122 35 122 297 l 122 -226 l 124 -228 q 367 -235 215 -242 q 611 -217 518 -229 q 936 -139 778 -194 q 953 -174 936 -139 q 986 -243 969 -208 l 1004 -278 l 36 -278 z "},"M":{"ha":1256,"x_min":0,"x_max":1132,"o":"m 1006 1108 l 1132 1108 l 1132 -278 l 1006 -278 l 1006 1018 q 933 918 969 968 q 769 699 882 846 q 597 467 657 553 q 764 261 678 363 q 815 117 839 172 q 700 50 794 65 q 560 39 629 39 q 506 40 532 39 q 399 81 426 46 q 383 164 372 114 q 417 244 389 193 q 550 450 450 308 q 397 624 450 563 q 261 770 343 685 q 126 900 179 856 l 126 -275 l 0 -275 l 0 1111 l 126 1111 q 578 490 393 728 q 731 703 617 544 q 910 957 846 863 q 1006 1108 975 1051 m 717 264 q 569 426 672 311 q 433 210 499 324 q 428 201 432 207 q 424 194 425 196 q 419 186 422 192 q 415 178 417 181 q 412 171 414 176 q 409 163 410 165 q 407 155 408 160 q 405 146 406 150 q 404 136 404 142 q 404 125 404 131 q 417 87 404 104 q 453 61 431 69 q 540 47 481 50 q 563 47 550 47 q 682 64 624 47 q 753 103 728 76 q 774 164 778 131 q 717 264 767 210 z "},"N":{"ha":1125,"x_min":0,"x_max":1007,"o":"m 1006 1108 l 1006 -278 l 879 -278 l 721 -278 q 779 -235 756 -271 q 808 -157 803 -200 q 731 99 826 -29 q 667 169 704 133 q 604 228 631 206 q 531 288 578 250 l 238 521 q 126 621 160 583 l 126 -275 l 0 -275 l 0 1110 l 43 1110 l 276 1111 q 211 966 222 1051 q 224 799 200 881 q 297 643 249 718 q 405 501 340 578 q 504 388 469 424 q 629 258 539 351 q 828 18 772 110 q 879 -87 858 -32 l 879 1108 l 1006 1108 m 908 -278 l 879 -278 l 908 -278 z "},"O":{"ha":1256,"x_min":-17,"x_max":1156,"o":"m 1133 482 q 1098 125 1156 293 q 922 -150 1040 -43 q 649 -275 803 -257 q 424 -245 535 -287 q 226 -119 313 -203 q 81 88 140 -35 q 6 351 22 211 q 42 708 -15 540 q 218 983 99 875 q 490 1108 338 1090 q 715 1078 604 1121 q 913 952 826 1036 q 1058 745 999 868 q 1133 482 1118 622 m 354 -123 q 414 -156 354 -123 q 603 -174 474 -189 q 835 -67 733 -158 q 985 166 936 24 q 1014 468 1033 308 q 897 784 994 647 q 661 975 800 921 q 533 990 582 996 q 462 963 494 986 q 419 904 429 940 q 417 878 417 892 q 431 818 417 846 q 481 746 451 779 l 668 510 q 738 406 719 444 q 753 341 751 376 q 743 276 756 306 q 714 238 728 250 q 664 207 700 225 q 717 297 703 232 q 714 356 722 326 q 681 418 706 386 q 641 468 657 450 q 593 518 625 486 q 491 604 560 551 q 400 675 422 657 q 304 792 331 735 q 296 938 267 871 q 103 699 169 857 q 57 358 36 542 q 155 71 75 199 q 354 -123 235 -57 z "},"P":{"ha":1119,"x_min":0,"x_max":1036,"o":"m 626 1111 l 126 1110 l 126 1111 l 626 1111 m 1003 778 q 985 516 1036 649 q 822 310 935 383 q 546 224 710 235 q 340 247 438 217 q 185 350 243 278 q 126 483 138 410 l 126 -278 l 0 -278 l 0 1111 l 126 1111 l 126 1110 l 626 1111 q 863 1005 757 1100 q 1003 778 968 910 m 860 511 q 893 707 908 615 q 744 926 874 832 q 342 1008 601 1032 q 182 954 235 999 q 126 808 129 910 q 126 578 126 578 q 144 643 132 611 q 242 760 178 714 q 386 811 307 806 q 253 728 310 797 q 190 578 197 658 q 224 427 183 500 q 332 313 264 354 q 483 268 400 272 q 638 294 565 264 q 767 381 710 324 q 860 511 825 438 z "},"Q":{"ha":1244,"x_min":-17,"x_max":1153,"o":"m 1133 482 q 1111 169 1153 318 q 979 -89 1069 19 q 1138 -182 1053 -144 q 1079 -249 1119 -204 q 1052 -273 1064 -267 q 1022 -276 1040 -279 q 965 -240 999 -272 q 896 -171 929 -207 q 649 -275 788 -258 q 424 -245 535 -287 q 226 -119 313 -203 q 81 88 140 -35 q 6 351 22 211 q 42 708 -15 540 q 218 983 99 875 q 490 1108 338 1090 q 715 1078 604 1121 q 913 952 826 1036 q 1058 745 999 868 q 1133 482 1118 622 m 603 -174 q 818 -82 725 -160 q 674 126 738 17 q 585 269 606 242 q 454 369 525 346 q 392 379 425 379 q 267 336 322 379 q 213 274 233 310 l 211 274 q 249 360 225 318 q 363 454 294 436 q 406 460 383 460 q 458 451 432 460 q 689 274 579 419 q 769 155 714 240 q 860 28 825 69 q 890 -7 874 11 q 997 209 964 85 q 1014 468 1031 333 q 917 756 996 628 q 718 949 838 883 q 469 1000 599 1015 q 238 894 339 985 q 88 660 136 803 q 57 358 39 518 q 155 71 75 199 q 354 -123 235 -57 q 603 -174 474 -189 z "},"R":{"ha":1217,"x_min":0,"x_max":1099,"o":"m 124 183 l 124 138 q 122 160 122 149 q 124 183 122 172 m 697 -40 q 983 -118 831 -118 q 1097 -106 1042 -118 q 1060 -237 1092 -125 q 1039 -267 1054 -256 q 1006 -278 1024 -278 q 1001 -278 1003 -278 q 614 -124 783 -264 q 467 51 525 -49 l 460 49 q 231 22 319 -6 q 139 94 171 40 q 124 138 128 115 l 124 183 q 182 315 132 233 q 253 406 221 381 q 358 429 306 449 q 421 367 399 415 q 449 279 428 353 q 506 153 469 213 q 693 319 610 224 q 842 617 822 468 q 822 785 853 703 q 725 915 792 868 q 638 956 689 940 q 550 975 588 971 q 451 983 513 979 q 283 983 396 986 q 124 981 171 979 l 124 183 q 122 160 122 172 q 124 138 122 149 l 124 -257 l 0 -257 l 0 1111 l 514 1111 q 567 1107 546 1108 q 590 1103 575 1106 q 611 1101 604 1101 q 817 1003 725 1076 q 951 826 910 931 q 974 576 997 704 q 874 340 951 449 q 551 88 763 188 q 697 -40 613 11 m 401 93 q 436 111 419 101 q 385 275 400 190 q 350 350 376 328 q 293 370 326 369 q 239 351 260 371 q 165 242 201 314 q 149 121 126 164 q 204 74 164 93 q 279 56 244 54 q 401 93 329 56 m 124 183 l 124 138 q 122 160 122 149 q 124 183 122 172 z "},"S":{"ha":1111,"x_min":-4,"x_max":1000,"o":"m 653 497 q 774 428 718 467 q 886 339 831 390 q 971 222 942 288 q 993 88 1000 157 q 922 -104 982 -26 q 729 -243 847 -199 q 488 -276 611 -287 q 258 -207 364 -265 q 120 -98 181 -164 q 28 49 60 -32 q -1 178 3 113 q 21 307 -4 243 q 99 413 46 371 q 101 414 100 414 l 101 415 q 211 458 147 458 q 233 457 222 458 q 349 379 310 446 q 374 254 379 328 q 347 128 369 213 q 350 71 336 88 q 376 60 360 61 q 406 68 393 60 q 420 78 413 72 q 436 93 428 85 q 450 107 444 101 q 549 143 493 143 q 630 119 593 143 q 685 56 667 94 q 574 103 639 103 q 494 81 531 103 q 456 49 479 71 q 424 21 432 26 q 339 -7 378 -17 q 301 17 317 -1 q 279 60 286 36 q 276 153 272 88 q 269 245 281 214 q 231 299 258 276 q 169 329 203 321 q 135 332 151 332 q 113 331 124 332 q 107 329 113 331 q 85 318 94 325 q 39 250 57 299 q 35 222 35 236 q 35 194 35 210 q 182 -78 46 53 q 451 -233 308 -200 q 608 -240 526 -251 q 753 -185 689 -228 q 855 -65 819 -139 q 879 85 890 10 q 817 224 869 160 q 690 331 765 288 q 619 367 660 349 q 560 392 579 385 q 479 419 540 399 q 413 443 418 440 q 149 581 235 506 q 58 702 90 632 q 35 844 25 772 q 90 974 43 915 q 207 1067 138 1033 q 494 1108 324 1122 q 864 1007 689 1093 l 864 825 q 563 1033 753 975 q 286 1046 408 1079 q 163 974 213 1025 q 122 851 114 922 q 196 717 131 778 q 329 635 242 675 q 490 567 381 611 q 653 497 599 524 m 179 454 q 158 447 168 451 q 179 454 169 451 m 82 382 l 81 379 q 82 382 82 382 m 82 382 l 79 379 q 82 382 82 382 m 179 454 q 158 447 169 451 q 179 454 168 451 m 82 382 l 79 379 q 82 382 82 382 m 179 454 q 158 447 169 451 q 179 454 168 451 m 82 382 q 81 379 82 382 l 82 382 z "},"T":{"ha":1197,"x_min":-11,"x_max":1081,"o":"m 1079 1085 q 1078 996 1079 1057 q 1072 958 1076 972 q 1050 935 1067 944 q 979 921 1028 921 q 975 921 978 921 q 969 921 972 921 q 750 933 858 921 q 725 935 725 935 q 710 936 718 936 q 669 929 689 936 q 636 903 649 922 q 624 864 626 885 l 624 -278 l 499 -278 l 499 -276 l 376 -276 q 444 -199 410 -256 q 465 -111 472 -153 q 414 -32 458 -71 q 376 -2 403 -22 q 336 31 350 18 q 292 114 293 71 q 326 193 290 157 q 401 242 360 225 q 465 281 451 264 q 478 315 478 294 q 463 346 478 336 q 499 315 489 342 l 499 983 q 333 1025 369 1019 q 161 1006 233 1039 q 80 943 114 985 q 33 850 46 901 q 28 806 28 828 q 32 767 28 786 q 31 765 32 765 q 31 764 31 764 q 3 854 11 808 q 32 1004 -11 943 q 110 1068 63 1046 q 414 1101 229 1131 q 558 1072 457 1094 q 715 1042 660 1049 q 804 1038 758 1038 q 1079 1085 946 1038 m 499 -24 q 499 25 499 -6 q 499 119 499 56 q 499 226 499 183 q 499 269 499 269 q 457 218 485 238 q 436 201 450 211 q 411 183 422 192 q 392 165 400 175 q 367 92 357 129 q 376 72 369 81 q 396 52 382 63 q 413 39 410 42 q 436 24 417 36 q 499 -24 469 3 z "},"U":{"ha":1081,"x_min":-8,"x_max":963,"o":"m 963 1111 l 963 -221 l 842 -221 l 842 -17 q 726 -172 808 -100 q 554 -262 654 -237 q 354 -271 454 -287 q 122 -161 211 -249 q 23 4 53 -94 q 3 207 -7 103 q 138 579 18 371 q 181 669 172 642 q 172 765 196 726 q 110 818 157 790 q 47 863 63 846 q 15 944 15 897 q 28 997 15 972 q 73 1044 44 1026 q 136 1063 101 1063 q 150 1061 142 1063 q 98 1031 121 1056 q 65 975 75 1006 q 63 946 63 961 q 96 864 63 897 q 166 826 117 846 q 235 792 215 806 q 287 701 275 760 q 281 592 299 643 q 257 529 272 561 q 218 457 242 497 q 185 397 194 417 q 129 82 101 232 q 198 -68 146 -1 q 325 -162 250 -135 q 660 -108 500 -224 q 786 88 735 -53 q 842 343 838 228 q 842 368 842 357 l 842 1111 l 963 1111 m 842 343 l 842 368 l 842 343 z "},"V":{"ha":1244,"x_min":0,"x_max":1139,"o":"m 1111 782 q 1088 721 1101 751 q 1056 656 1075 690 q 1025 601 1038 622 q 986 540 1013 581 q 951 485 960 500 q 633 -278 729 131 q 632 -276 633 -278 l 633 -278 l 501 -278 l 0 1111 l 126 1111 l 603 -197 q 608 -151 604 -175 q 849 468 679 178 q 879 520 857 483 q 913 577 901 557 q 940 628 924 597 q 967 688 956 660 q 985 744 978 715 q 992 899 1007 817 q 922 1031 976 981 q 1051 1110 1025 1094 q 1123 956 1108 1051 q 1111 782 1138 861 z "},"W":{"ha":1253,"x_min":-7,"x_max":1149,"o":"m 126 -235 l 122 -240 l 119 -235 l 126 -235 m 1085 -117 q 1125 -162 1108 -136 q 1135 -201 1135 -181 q 1132 -221 1135 -211 q 1071 -272 1119 -258 q 988 -278 1044 -279 l 922 -275 l 643 -275 q 618 -150 600 -237 q 707 151 651 4 q 557 342 581 311 q 426 169 507 272 q 521 -149 486 14 q 497 -274 540 -237 l 107 -274 q 101 -274 104 -274 q 96 -274 97 -274 q 64 -268 79 -272 q 4 -217 15 -254 q 1 -197 1 -207 q 11 -160 1 -176 q 49 -114 26 -133 q 118 -54 104 -62 l 118 -54 q 197 24 131 -40 q 294 119 264 88 l 347 174 q 181 486 275 336 q 145 542 171 501 q 106 603 119 582 q 74 658 93 625 q 42 722 56 692 q 21 783 29 753 q 8 958 -7 863 q 79 1111 24 1053 q 208 1032 106 1096 q 139 900 154 982 q 146 746 124 818 q 164 689 153 717 q 192 630 175 661 q 219 579 208 599 q 252 522 229 560 q 283 471 275 485 q 403 231 350 356 q 538 367 500 331 q 408 528 474 447 l 407 528 q 398 550 400 536 q 401 572 396 564 q 432 593 413 589 q 461 596 446 596 q 469 596 465 596 q 631 582 578 594 q 664 568 649 578 q 683 539 679 558 q 674 514 682 525 q 586 383 640 463 q 733 218 658 299 q 858 471 788 349 q 888 523 867 486 q 922 579 910 560 q 949 630 933 599 q 976 689 965 661 q 994 746 988 717 q 1001 900 1017 818 q 932 1032 986 982 q 1061 1111 1032 1094 q 1133 958 1118 1053 q 1121 783 1147 863 q 1098 722 1111 753 q 1066 658 1085 692 q 1035 603 1047 624 q 996 542 1022 583 q 960 486 969 501 q 788 158 861 329 q 965 -21 892 47 l 967 -21 q 1085 -117 1024 -61 m 122 -240 l 126 -235 l 119 -235 l 122 -240 m 479 -207 q 376 104 438 -47 q 165 -169 207 -110 q 156 -208 157 -187 q 194 -233 157 -224 l 451 -233 q 461 -232 457 -233 q 476 -222 471 -229 q 481 -211 481 -217 q 479 -207 481 -208 q 479 -207 479 -207 m 497 483 q 565 406 532 444 q 649 535 608 469 q 628 568 656 553 q 586 581 608 579 q 529 585 557 585 q 465 581 497 585 q 449 576 457 579 q 438 563 440 572 q 438 560 438 561 q 439 551 438 556 q 465 518 442 544 q 482 500 471 511 q 497 483 493 489 m 947 -235 q 971 -212 971 -225 q 971 -210 971 -212 q 963 -183 971 -196 q 956 -172 961 -179 q 949 -162 951 -165 l 949 -161 q 758 89 874 -58 q 660 -208 700 -57 q 660 -211 660 -210 q 664 -222 660 -218 q 679 -232 669 -229 q 689 -235 683 -233 l 947 -235 m 106 -274 l 94 -274 q 106 -274 101 -274 m 126 -235 l 122 -240 l 119 -235 l 126 -235 m 126 -235 l 122 -240 l 119 -235 l 126 -235 m 132 -274 l 106 -274 l 132 -274 z "},"X":{"ha":1122,"x_min":-11,"x_max":1007,"o":"m 1007 -278 l 875 -278 l 463 378 q 414 331 438 354 q 366 285 407 325 q 301 224 325 244 q 179 99 233 168 q 101 -157 83 -29 q 131 -235 107 -200 q 189 -278 154 -271 l 1 -278 q 82 18 -11 -133 q 281 258 139 111 q 436 421 396 376 l 1 1110 l 131 1110 l 511 507 q 613 643 565 572 q 685 799 661 718 q 699 966 710 881 q 632 1111 688 1051 l 838 1110 q 860 1076 860 1104 q 856 1026 861 1047 q 664 593 832 810 q 543 457 607 522 l 1007 -278 z "},"Y":{"ha":983,"x_min":0,"x_max":867,"o":"m 492 -272 q 426 -278 460 -278 q 372 -274 400 -278 q 367 -260 368 -267 q 366 -240 365 -253 q 367 -225 367 -226 q 367 415 367 96 l 367 440 q 365 483 367 478 q 336 515 363 488 q 282 572 331 522 q 208 650 233 622 q 88 803 140 721 q 3 1031 19 907 q 0 1068 0 1050 q 3 1101 0 1085 q 82 1108 26 1107 q 163 1101 138 1108 q 162 1097 163 1099 q 158 1092 161 1094 q 153 1089 154 1090 q 101 972 107 1047 q 100 950 100 961 q 122 836 100 890 q 201 706 150 764 q 272 633 229 674 q 375 539 299 607 q 393 525 383 531 q 569 819 453 624 q 743 1111 686 1015 l 864 1111 q 865 1102 867 1108 q 863 1094 864 1096 q 858 1087 863 1092 q 854 1081 854 1082 q 658 753 756 917 q 517 517 536 550 q 493 438 493 481 q 493 436 493 438 q 493 433 493 435 q 493 226 493 336 q 493 -17 493 117 q 493 -224 493 -150 q 492 -272 494 -261 z "},"Z":{"ha":1208,"x_min":-15,"x_max":1082,"o":"m 564 386 q 296 126 393 249 q 215 -129 214 21 q 219 -144 217 -137 q 250 -149 235 -147 l 469 -149 l 935 -149 q 924 -128 931 -137 q 894 -90 914 -114 q 865 -54 874 -65 q 810 63 825 -1 q 806 89 806 75 q 819 140 806 117 q 828 149 822 146 q 832 150 828 150 q 836 136 836 149 q 836 132 836 133 q 879 21 836 68 q 946 -43 911 -14 q 989 -79 961 -57 q 1028 -111 1017 -101 q 1074 -165 1056 -133 q 1082 -200 1082 -182 q 1058 -254 1082 -232 q 1014 -274 1040 -274 q 946 -275 968 -274 l 107 -278 l 83 -278 q 69 -253 75 -265 q 57 -17 25 -147 q 142 161 82 81 q 344 382 231 283 q 379 413 357 392 q 382 419 379 413 q 367 428 375 425 q 144 506 253 460 q 100 531 121 515 q 81 597 64 557 q 121 683 83 603 q 135 681 129 683 q 147 672 140 679 q 154 664 154 664 q 451 508 285 551 q 460 507 453 508 q 472 504 468 506 q 486 501 479 501 q 515 511 503 501 q 789 736 679 629 q 829 911 860 807 q 782 968 818 950 q 718 986 751 983 q 667 989 679 989 q 325 983 439 986 q 246 978 285 983 q 193 961 218 974 q 155 919 164 946 q 161 861 146 892 q 171 844 161 860 q 108 817 150 832 q 60 797 67 801 q 3 890 15 824 q 68 1053 -15 989 q 192 1103 124 1094 q 285 1111 239 1111 q 581 1107 350 1111 q 660 1106 604 1107 q 744 1104 715 1104 q 843 1083 796 1104 q 925 1008 899 1061 q 950 936 942 974 q 878 663 979 769 q 751 544 849 631 q 715 513 739 532 q 683 486 690 493 q 671 474 676 481 q 674 467 672 469 q 678 463 676 464 q 684 463 681 463 q 689 463 688 463 q 821 419 779 440 q 901 374 863 400 q 957 324 932 351 q 975 103 1047 219 q 915 32 950 63 q 915 44 915 43 q 919 53 914 46 q 924 61 924 60 q 942 144 942 100 q 935 197 942 171 q 846 317 914 274 q 704 368 790 353 q 626 378 678 372 q 564 386 575 385 z "},"a":{"ha":1128,"x_min":0,"x_max":1042,"o":"m 1040 -278 l 915 -278 l 411 1111 l 538 1111 l 1040 -278 m 14 -42 q 65 45 28 7 q 153 106 103 83 q 357 142 233 143 q 402 144 385 142 q 441 155 419 146 q 472 181 463 164 q 472 241 485 211 q 432 293 460 271 q 358 339 408 313 q 297 372 307 365 q 203 489 214 422 q 206 545 197 514 q 223 594 214 576 q 251 647 232 611 q 411 1111 371 865 q 297 660 390 858 q 260 557 264 588 q 265 502 256 529 q 294 460 274 475 q 409 392 333 432 q 542 313 485 351 q 635 224 599 274 q 653 158 653 193 q 653 149 653 153 q 604 65 646 92 q 508 38 571 44 q 443 33 478 33 q 365 34 408 33 q 299 35 321 35 q 296 35 297 35 q 168 22 231 35 q 106 3 136 15 q 83 -10 93 0 q 64 -35 72 -21 q 44 -69 53 -51 q 32 -106 36 -87 q 29 -136 29 -121 q 40 -196 29 -167 q 83 -275 56 -237 q 40 -228 40 -228 q 0 -142 6 -192 q 0 -126 0 -135 q 14 -42 0 -83 z "},"b":{"ha":1094,"x_min":0,"x_max":1011,"o":"m 1001 99 q 985 -56 1011 19 q 901 -179 958 -131 q 804 -236 858 -218 q 735 -254 772 -247 q 670 -265 697 -261 q 596 -272 643 -269 q 530 -274 549 -274 q 456 -274 511 -274 q 386 -275 400 -275 q 290 -276 357 -275 q 190 -278 222 -278 q 94 -276 158 -278 l 0 -276 l 0 1111 l 126 1111 q 615 1108 371 1111 q 694 1104 663 1107 q 764 1089 725 1101 q 831 1053 803 1076 q 883 967 868 1019 q 886 861 897 914 q 774 689 865 768 q 599 576 722 643 l 592 572 q 701 513 649 543 q 792 446 742 488 q 871 371 843 404 q 1001 99 986 233 m 792 -126 q 860 -21 835 -87 q 879 104 885 46 q 840 247 868 178 q 758 383 807 325 q 631 499 708 442 q 550 550 592 526 l 365 449 q 294 449 318 424 q 278 485 279 464 l 257 671 q 271 708 253 701 q 279 710 275 710 q 293 706 288 710 q 436 641 347 679 q 543 594 525 603 q 693 740 646 676 q 746 964 774 854 q 713 1031 736 1001 q 654 1074 689 1061 q 590 1082 624 1082 q 583 1082 588 1082 q 286 1082 435 1085 q 175 1060 210 1082 q 126 989 139 1033 l 126 -233 q 209 -235 158 -235 q 303 -236 260 -236 q 354 -236 346 -236 q 585 -225 503 -240 q 792 -126 714 -200 m 513 571 q 317 664 511 571 q 279 664 290 676 q 274 647 274 656 q 274 643 274 644 l 292 519 q 307 469 296 489 q 344 451 318 450 q 376 464 363 453 l 513 571 z "},"c":{"ha":1117,"x_min":-15,"x_max":1011,"o":"m 883 -68 q 944 -168 928 -143 q 708 -269 839 -246 q 455 -255 578 -292 q 231 -126 332 -218 q 75 92 131 -35 q 1 436 15 229 q 107 889 -14 710 q 272 1047 174 988 q 479 1111 371 1107 q 492 1111 481 1111 q 628 1088 561 1111 q 882 876 778 1035 q 1011 553 969 744 q 951 542 990 549 q 893 533 913 536 q 783 810 858 697 q 565 990 694 944 q 450 1011 510 1011 q 439 1010 444 1011 q 262 956 347 1007 q 121 821 176 904 q 31 433 17 667 q 93 139 42 257 q 226 -48 140 31 q 418 -158 313 -126 q 658 -162 526 -189 q 883 -68 790 -135 z "},"d":{"ha":1238,"x_min":0,"x_max":1132,"o":"m 1131 418 q 1132 369 1132 392 q 1075 90 1132 222 q 917 -140 1018 -42 q 710 -258 821 -233 q 533 -276 639 -275 q 125 -276 240 -279 l 0 -276 l 0 1100 q 7 1107 1 1104 q 22 1110 13 1110 q 40 1111 32 1111 q 60 1110 49 1111 q 75 1110 71 1110 q 471 1085 317 1113 q 838 939 688 1046 q 1040 713 963 849 q 1131 418 1117 576 m 821 -58 q 957 136 908 22 q 1004 372 1006 250 q 956 606 1003 492 q 826 808 910 719 q 638 954 746 896 q 411 1036 531 1013 q 208 1025 286 1060 q 156 980 178 1011 q 125 911 133 949 q 125 908 125 910 l 125 864 q 125 853 125 861 l 125 -232 q 481 -218 339 -237 q 821 -58 675 -192 z "},"e":{"ha":1133,"x_min":0,"x_max":1013,"o":"m 126 1058 l 126 475 q 168 519 143 500 q 286 560 221 560 q 331 556 310 560 q 458 472 400 539 q 547 346 492 436 q 599 301 572 303 q 630 314 617 300 q 647 346 643 328 q 651 369 650 356 q 651 393 651 382 q 651 417 650 404 q 707 538 654 489 q 832 588 760 588 q 890 578 861 588 q 775 538 828 581 q 710 435 722 496 q 706 374 706 414 q 704 324 706 335 q 657 226 699 253 q 550 231 610 197 q 467 306 519 247 q 381 376 418 360 q 301 386 343 392 q 225 357 260 381 q 136 225 160 313 q 126 167 129 196 q 125 129 125 149 q 126 93 125 111 q 140 -3 131 44 q 235 -174 163 -122 q 401 -225 290 -215 q 676 -213 529 -236 q 943 -142 824 -190 q 944 -142 944 -142 q 952 -142 950 -139 q 963 -167 954 -146 q 1010 -278 985 -221 l 821 -278 l 126 -278 l 126 -278 l 126 -271 l 125 -271 l 126 -278 l 0 -278 l 0 1111 l 1011 1111 l 1011 1058 l 126 1058 z "},"f":{"ha":1111,"x_min":0,"x_max":1007,"o":"m 126 886 l 126 885 q 126 874 126 878 l 126 479 q 165 521 143 503 q 283 561 217 561 q 328 556 306 561 q 456 474 396 539 q 543 346 489 436 q 596 301 569 303 q 626 315 613 301 q 644 346 640 328 q 648 370 647 357 q 648 394 649 383 q 649 418 647 404 q 703 539 651 489 q 828 589 756 589 q 888 579 860 589 q 772 538 825 581 q 708 435 719 496 q 703 374 704 414 q 701 324 703 335 q 654 226 696 253 q 547 231 607 197 q 464 306 517 247 q 378 376 415 360 q 299 388 340 393 q 224 358 257 382 q 133 225 157 313 q 131 213 132 219 l 131 251 l 128 192 q 131 213 129 206 l 129 76 l 129 -111 l 131 -278 l 126 -278 l 0 -278 l 0 1111 l 1007 1111 q 946 963 993 1081 q 618 1050 788 1024 q 331 1044 446 1076 q 285 1031 299 1035 q 242 1016 271 1026 q 198 996 213 1006 q 165 972 183 986 q 137 938 146 957 q 126 896 128 918 q 126 886 126 892 z "},"g":{"ha":1244,"x_min":-17,"x_max":1156,"o":"m 649 -275 q 424 -245 535 -287 q 226 -119 313 -203 q 81 88 140 -35 q 6 351 22 211 q 42 708 -15 540 q 218 983 99 875 q 490 1108 338 1090 q 789 1044 646 1126 q 1024 810 932 963 l 903 776 q 708 953 824 893 q 468 1000 593 1014 q 238 894 339 985 q 88 660 136 803 q 57 358 39 517 q 155 71 75 199 q 354 -123 235 -57 q 603 -174 474 -189 q 828 -73 729 -160 q 978 150 928 14 q 1017 440 1029 286 q 832 390 919 432 q 712 323 789 369 q 604 260 635 276 q 371 217 464 186 q 308 258 332 228 q 281 392 274 306 q 297 485 285 439 l 299 483 q 297 456 297 469 q 303 404 297 431 q 342 328 314 360 q 407 289 369 297 q 539 314 464 275 q 665 393 564 325 q 983 556 814 494 q 988 556 988 556 l 999 560 l 1000 560 l 1057 576 l 1056 576 l 1114 592 q 1133 482 1128 538 q 1098 126 1156 293 q 922 -149 1040 -42 q 649 -275 803 -257 z "},"h":{"ha":1119,"x_min":0,"x_max":997,"o":"m 875 485 q 875 482 875 483 q 871 440 875 461 q 824 361 861 386 q 729 344 792 339 q 550 390 635 351 q 482 424 533 397 q 400 463 431 451 q 240 456 304 496 q 158 335 189 424 q 125 185 133 261 q 122 111 122 147 q 149 -81 122 14 q 199 -206 165 -146 q 247 -274 232 -257 l 110 -274 l 110 -278 l 0 -278 l 0 1111 l 121 1111 l 121 524 q 143 546 131 536 q 317 586 211 607 q 485 510 386 572 q 522 485 493 504 q 565 458 551 467 q 601 436 578 449 q 644 415 624 424 q 803 401 736 375 q 875 485 860 425 m 875 -278 l 875 1111 l 996 1111 l 996 -278 l 875 -278 z "},"i":{"ha":247,"x_min":0,"x_max":122,"o":"m 0 -278 l 0 1111 l 122 1111 l 122 -278 l 0 -278 z "},"j":{"ha":1000,"x_min":-8,"x_max":879,"o":"m 878 1111 l 878 104 q 851 -43 878 32 q 775 -161 825 -118 q 472 -275 660 -260 q 181 -225 301 -290 q 64 -125 110 -187 q 4 10 18 -62 q 12 151 -8 79 q 79 283 32 222 q 124 335 93 300 q 171 388 156 369 q 215 510 221 453 q 188 572 213 546 q 128 604 163 599 q 217 576 176 608 q 265 499 257 544 q 224 331 281 431 q 178 264 219 324 q 128 169 138 204 q 119 51 110 115 q 168 -58 129 -14 q 280 -131 207 -104 q 426 -161 353 -158 q 563 -145 492 -165 q 676 -87 633 -125 q 733 -6 717 -51 q 756 104 750 39 l 756 914 q 737 957 751 938 q 708 988 722 976 q 667 1013 694 1000 q 626 1030 640 1025 q 582 1044 611 1035 q 335 1050 483 1076 q 53 963 188 1024 q 0 1111 10 1085 l 756 1111 l 878 1111 z "},"k":{"ha":1253,"x_min":0,"x_max":1121,"o":"m 1121 -160 q 1074 -233 1104 -189 q 1049 -261 1060 -253 q 1021 -269 1039 -269 q 960 -242 996 -268 q 624 78 769 -106 q 598 110 615 88 q 571 145 581 133 q 545 175 561 157 q 515 206 529 193 q 375 286 447 274 q 340 289 357 289 q 194 228 254 289 q 151 163 167 200 q 151 161 151 163 q 121 58 132 111 q 121 -26 121 58 q 121 -194 121 -110 l 121 -278 l 0 -278 l 0 1111 l 121 1111 l 121 301 q 189 407 144 361 q 344 506 240 460 q 461 551 374 518 q 594 607 549 585 q 806 771 738 676 q 859 894 846 828 q 851 1028 872 961 q 874 879 885 956 q 815 738 863 803 q 575 550 746 642 q 510 515 565 544 q 435 474 456 486 q 378 438 415 463 q 313 390 340 414 q 281 360 296 376 q 340 369 310 369 q 367 368 354 369 q 618 225 492 353 q 713 121 646 197 q 819 7 779 44 q 1121 -160 950 -112 z "},"l":{"ha":1136,"x_min":0,"x_max":1004,"o":"m 36 -278 l 47 -278 l 0 -278 l 0 1111 l 246 1111 q 151 974 192 1089 q 122 819 126 899 q 122 558 122 819 q 122 35 122 297 l 122 -226 l 124 -228 q 367 -235 215 -242 q 611 -217 518 -229 q 936 -139 778 -194 q 953 -174 936 -139 q 986 -243 969 -208 l 1004 -278 l 36 -278 z "},"m":{"ha":1256,"x_min":0,"x_max":1132,"o":"m 1006 1108 l 1132 1108 l 1132 -278 l 1006 -278 l 1006 1018 q 933 918 969 968 q 769 699 882 846 q 597 467 657 553 q 764 261 678 363 q 815 117 839 172 q 700 50 794 65 q 560 39 629 39 q 506 40 532 39 q 399 81 426 46 q 383 164 372 114 q 417 244 389 193 q 550 450 450 308 q 397 624 450 563 q 261 770 343 685 q 126 900 179 856 l 126 -275 l 0 -275 l 0 1111 l 126 1111 q 578 490 393 728 q 731 703 617 544 q 910 957 846 863 q 1006 1108 975 1051 m 717 264 q 569 426 672 311 q 433 210 499 324 q 428 201 432 207 q 424 194 425 196 q 419 186 422 192 q 415 178 417 181 q 412 171 414 176 q 409 163 410 165 q 407 155 408 160 q 405 146 406 150 q 404 136 404 142 q 404 125 404 131 q 417 87 404 104 q 453 61 431 69 q 540 47 481 50 q 563 47 550 47 q 682 64 624 47 q 753 103 728 76 q 774 164 778 131 q 717 264 767 210 z "},"n":{"ha":1125,"x_min":0,"x_max":1007,"o":"m 1006 1108 l 1006 -278 l 879 -278 l 721 -278 q 779 -235 756 -271 q 808 -157 803 -200 q 731 99 826 -29 q 667 169 704 133 q 604 228 631 206 q 531 288 578 250 l 238 521 q 126 621 160 583 l 126 -275 l 0 -275 l 0 1110 l 43 1110 l 276 1111 q 211 966 222 1051 q 224 799 200 881 q 297 643 249 718 q 405 501 340 578 q 504 388 469 424 q 629 258 539 351 q 828 18 772 110 q 879 -87 858 -32 l 879 1108 l 1006 1108 m 908 -278 l 879 -278 l 908 -278 z "},"o":{"ha":1256,"x_min":-17,"x_max":1156,"o":"m 1133 482 q 1098 125 1156 293 q 922 -150 1040 -43 q 649 -275 803 -257 q 424 -245 535 -287 q 226 -119 313 -203 q 81 88 140 -35 q 6 351 22 211 q 42 708 -15 540 q 218 983 99 875 q 490 1108 338 1090 q 715 1078 604 1121 q 913 952 826 1036 q 1058 745 999 868 q 1133 482 1118 622 m 354 -123 q 414 -156 354 -123 q 603 -174 474 -189 q 835 -67 733 -158 q 985 166 936 24 q 1014 468 1033 308 q 897 784 994 647 q 661 975 800 921 q 533 990 582 996 q 462 963 494 986 q 419 904 429 940 q 417 878 417 892 q 431 818 417 846 q 481 746 451 779 l 668 510 q 738 406 719 444 q 753 341 751 376 q 743 276 756 306 q 714 238 728 250 q 664 207 700 225 q 717 297 703 232 q 714 356 722 326 q 681 418 706 386 q 641 468 657 450 q 593 518 625 486 q 491 604 560 551 q 400 675 422 657 q 304 792 331 735 q 296 938 267 871 q 103 699 169 857 q 57 358 36 542 q 155 71 75 199 q 354 -123 235 -57 z "},"p":{"ha":1119,"x_min":0,"x_max":1036,"o":"m 626 1111 l 126 1110 l 126 1111 l 626 1111 m 1003 778 q 985 516 1036 649 q 822 310 935 383 q 546 224 710 235 q 340 247 438 217 q 185 350 243 278 q 126 483 138 410 l 126 -278 l 0 -278 l 0 1111 l 126 1111 l 126 1110 l 626 1111 q 863 1005 757 1100 q 1003 778 968 910 m 860 511 q 893 707 908 615 q 744 926 874 832 q 342 1008 601 1032 q 182 954 235 999 q 126 808 129 910 q 126 578 126 578 q 144 643 132 611 q 242 760 178 714 q 386 811 307 806 q 253 728 310 797 q 190 578 197 658 q 224 427 183 500 q 332 313 264 354 q 483 268 400 272 q 638 294 565 264 q 767 381 710 324 q 860 511 825 438 z "},"q":{"ha":1244,"x_min":-17,"x_max":1153,"o":"m 1133 482 q 1111 169 1153 318 q 979 -89 1069 19 q 1138 -182 1053 -144 q 1079 -249 1119 -204 q 1052 -273 1064 -267 q 1022 -276 1040 -279 q 965 -240 999 -272 q 896 -171 929 -207 q 649 -275 788 -258 q 424 -245 535 -287 q 226 -119 313 -203 q 81 88 140 -35 q 6 351 22 211 q 42 708 -15 540 q 218 983 99 875 q 490 1108 338 1090 q 715 1078 604 1121 q 913 952 826 1036 q 1058 745 999 868 q 1133 482 1118 622 m 603 -174 q 818 -82 725 -160 q 674 126 738 17 q 585 269 606 242 q 454 369 525 346 q 392 379 425 379 q 267 336 322 379 q 213 274 233 310 l 211 274 q 249 360 225 318 q 363 454 294 436 q 406 460 383 460 q 458 451 432 460 q 689 274 579 419 q 769 155 714 240 q 860 28 825 69 q 890 -7 874 11 q 997 209 964 85 q 1014 468 1031 333 q 917 756 996 628 q 718 949 838 883 q 469 1000 599 1015 q 238 894 339 985 q 88 660 136 803 q 57 358 39 518 q 155 71 75 199 q 354 -123 235 -57 q 603 -174 474 -189 z "},"r":{"ha":1217,"x_min":0,"x_max":1099,"o":"m 124 183 l 124 138 q 122 160 122 149 q 124 183 122 172 m 697 -40 q 983 -118 831 -118 q 1097 -106 1042 -118 q 1060 -237 1092 -125 q 1039 -267 1054 -256 q 1006 -278 1024 -278 q 1001 -278 1003 -278 q 614 -124 783 -264 q 467 51 525 -49 l 460 49 q 231 22 319 -6 q 139 94 171 40 q 124 138 128 115 l 124 183 q 182 315 132 233 q 253 406 221 381 q 358 429 306 449 q 421 367 399 415 q 449 279 428 353 q 506 153 469 213 q 693 319 610 224 q 842 617 822 468 q 822 785 853 703 q 725 915 792 868 q 638 956 689 940 q 550 975 588 971 q 451 983 513 979 q 283 983 396 986 q 124 981 171 979 l 124 183 q 122 160 122 172 q 124 138 122 149 l 124 -257 l 0 -257 l 0 1111 l 514 1111 q 567 1107 546 1108 q 590 1103 575 1106 q 611 1101 604 1101 q 817 1003 725 1076 q 951 826 910 931 q 974 576 997 704 q 874 340 951 449 q 551 88 763 188 q 697 -40 613 11 m 401 93 q 436 111 419 101 q 385 275 400 190 q 350 350 376 328 q 293 370 326 369 q 239 351 260 371 q 165 242 201 314 q 149 121 126 164 q 204 74 164 93 q 279 56 244 54 q 401 93 329 56 m 124 183 l 124 138 q 122 160 122 149 q 124 183 122 172 z "},"s":{"ha":1111,"x_min":-4,"x_max":1000,"o":"m 653 497 q 774 428 718 467 q 886 339 831 390 q 971 222 942 288 q 993 88 1000 157 q 922 -104 982 -26 q 729 -243 847 -199 q 488 -276 611 -287 q 258 -207 364 -265 q 120 -98 181 -164 q 28 49 60 -32 q -1 178 3 113 q 21 307 -4 243 q 99 413 46 371 q 101 414 100 414 l 101 415 q 211 458 147 458 q 233 457 222 458 q 349 379 310 446 q 374 254 379 328 q 347 128 369 213 q 350 71 336 88 q 376 60 360 61 q 406 68 393 60 q 420 78 413 72 q 436 93 428 85 q 450 107 444 101 q 549 143 493 143 q 630 119 593 143 q 685 56 667 94 q 574 103 639 103 q 494 81 531 103 q 456 49 479 71 q 424 21 432 26 q 339 -7 378 -17 q 301 17 317 -1 q 279 60 286 36 q 276 153 272 88 q 269 245 281 214 q 231 299 258 276 q 169 329 203 321 q 135 332 151 332 q 113 331 124 332 q 107 329 113 331 q 85 318 94 325 q 39 250 57 299 q 35 222 35 236 q 35 194 35 210 q 182 -78 46 53 q 451 -233 308 -200 q 608 -240 526 -251 q 753 -185 689 -228 q 855 -65 819 -139 q 879 85 890 10 q 817 224 869 160 q 690 331 765 288 q 619 367 660 349 q 560 392 579 385 q 479 419 540 399 q 413 443 418 440 q 149 581 235 506 q 58 702 90 632 q 35 844 25 772 q 90 974 43 915 q 207 1067 138 1033 q 494 1108 324 1122 q 864 1007 689 1093 l 864 825 q 563 1033 753 975 q 286 1046 408 1079 q 163 974 213 1025 q 122 851 114 922 q 196 717 131 778 q 329 635 242 675 q 490 567 381 611 q 653 497 599 524 m 179 454 q 158 447 168 451 q 179 454 169 451 m 82 382 l 81 379 q 82 382 82 382 m 82 382 l 79 379 q 82 382 82 382 m 179 454 q 158 447 169 451 q 179 454 168 451 m 82 382 l 79 379 q 82 382 82 382 m 179 454 q 158 447 169 451 q 179 454 168 451 m 82 382 q 81 379 82 382 l 82 382 z "},"t":{"ha":1197,"x_min":-11,"x_max":1081,"o":"m 1079 1085 q 1078 996 1079 1057 q 1072 958 1076 972 q 1050 935 1067 944 q 979 921 1028 921 q 975 921 978 921 q 969 921 972 921 q 750 933 858 921 q 725 935 725 935 q 710 936 718 936 q 669 929 689 936 q 636 903 649 922 q 624 864 626 885 l 624 -278 l 499 -278 l 499 -276 l 376 -276 q 444 -199 410 -256 q 465 -111 472 -153 q 414 -32 458 -71 q 376 -2 403 -22 q 336 31 350 18 q 292 114 293 71 q 326 193 290 157 q 401 242 360 225 q 465 281 451 264 q 478 315 478 294 q 463 346 478 336 q 499 315 489 342 l 499 983 q 333 1025 369 1019 q 161 1006 233 1039 q 80 943 114 985 q 33 850 46 901 q 28 806 28 828 q 32 767 28 786 q 31 765 32 765 q 31 764 31 764 q 3 854 11 808 q 32 1004 -11 943 q 110 1068 63 1046 q 414 1101 229 1131 q 558 1072 457 1094 q 715 1042 660 1049 q 804 1038 758 1038 q 1079 1085 946 1038 m 499 -24 q 499 25 499 -6 q 499 119 499 56 q 499 226 499 183 q 499 269 499 269 q 457 218 485 238 q 436 201 450 211 q 411 183 422 192 q 392 165 400 175 q 367 92 357 129 q 376 72 369 81 q 396 52 382 63 q 413 39 410 42 q 436 24 417 36 q 499 -24 469 3 z "},"u":{"ha":1081,"x_min":-8,"x_max":963,"o":"m 963 1111 l 963 -221 l 842 -221 l 842 -17 q 726 -172 808 -100 q 554 -262 654 -237 q 354 -271 454 -287 q 122 -161 211 -249 q 23 4 53 -94 q 3 207 -7 103 q 138 579 18 371 q 181 669 172 642 q 172 765 196 726 q 110 818 157 790 q 47 863 63 846 q 15 944 15 897 q 28 997 15 972 q 73 1044 44 1026 q 136 1063 101 1063 q 150 1061 142 1063 q 98 1031 121 1056 q 65 975 75 1006 q 63 946 63 961 q 96 864 63 897 q 166 826 117 846 q 235 792 215 806 q 287 701 275 760 q 281 592 299 643 q 257 529 272 561 q 218 457 242 497 q 185 397 194 417 q 129 82 101 232 q 198 -68 146 -1 q 325 -162 250 -135 q 660 -108 500 -224 q 786 88 735 -53 q 842 343 838 228 q 842 368 842 357 l 842 1111 l 963 1111 m 842 343 l 842 368 l 842 343 z "},"v":{"ha":1244,"x_min":0,"x_max":1139,"o":"m 1111 782 q 1088 721 1101 751 q 1056 656 1075 690 q 1025 601 1038 622 q 986 540 1013 581 q 951 485 960 500 q 633 -278 729 131 q 632 -276 633 -278 l 633 -278 l 501 -278 l 0 1111 l 126 1111 l 603 -197 q 608 -151 604 -175 q 849 468 679 178 q 879 520 857 483 q 913 577 901 557 q 940 628 924 597 q 967 688 956 660 q 985 744 978 715 q 992 899 1007 817 q 922 1031 976 981 q 1051 1110 1025 1094 q 1123 956 1108 1051 q 1111 782 1138 861 z "},"w":{"ha":1253,"x_min":-7,"x_max":1149,"o":"m 126 -235 l 122 -240 l 119 -235 l 126 -235 m 1085 -117 q 1125 -162 1108 -136 q 1135 -201 1135 -181 q 1132 -221 1135 -211 q 1071 -272 1119 -258 q 988 -278 1044 -279 l 922 -275 l 643 -275 q 618 -150 600 -237 q 707 151 651 4 q 557 342 581 311 q 426 169 507 272 q 521 -149 486 14 q 497 -274 540 -237 l 107 -274 q 101 -274 104 -274 q 96 -274 97 -274 q 64 -268 79 -272 q 4 -217 15 -254 q 1 -197 1 -207 q 11 -160 1 -176 q 49 -114 26 -133 q 118 -54 104 -62 l 118 -54 q 197 24 131 -40 q 294 119 264 88 l 347 174 q 181 486 275 336 q 145 542 171 501 q 106 603 119 582 q 74 658 93 625 q 42 722 56 692 q 21 783 29 753 q 8 958 -7 863 q 79 1111 24 1053 q 208 1032 106 1096 q 139 900 154 982 q 146 746 124 818 q 164 689 153 717 q 192 630 175 661 q 219 579 208 599 q 252 522 229 560 q 283 471 275 485 q 403 231 350 356 q 538 367 500 331 q 408 528 474 447 l 407 528 q 398 550 400 536 q 401 572 396 564 q 432 593 413 589 q 461 596 446 596 q 469 596 465 596 q 631 582 578 594 q 664 568 649 578 q 683 539 679 558 q 674 514 682 525 q 586 383 640 463 q 733 218 658 299 q 858 471 788 349 q 888 523 867 486 q 922 579 910 560 q 949 630 933 599 q 976 689 965 661 q 994 746 988 717 q 1001 900 1017 818 q 932 1032 986 982 q 1061 1111 1032 1094 q 1133 958 1118 1053 q 1121 783 1147 863 q 1098 722 1111 753 q 1066 658 1085 692 q 1035 603 1047 624 q 996 542 1022 583 q 960 486 969 501 q 788 158 861 329 q 965 -21 892 47 l 967 -21 q 1085 -117 1024 -61 m 122 -240 l 126 -235 l 119 -235 l 122 -240 m 479 -207 q 376 104 438 -47 q 165 -169 207 -110 q 156 -208 157 -187 q 194 -233 157 -224 l 451 -233 q 461 -232 457 -233 q 476 -222 471 -229 q 481 -211 481 -217 q 479 -207 481 -208 q 479 -207 479 -207 m 497 483 q 565 406 532 444 q 649 535 608 469 q 628 568 656 553 q 586 581 608 579 q 529 585 557 585 q 465 581 497 585 q 449 576 457 579 q 438 563 440 572 q 438 560 438 561 q 439 551 438 556 q 465 518 442 544 q 482 500 471 511 q 497 483 493 489 m 947 -235 q 971 -212 971 -225 q 971 -210 971 -212 q 963 -183 971 -196 q 956 -172 961 -179 q 949 -162 951 -165 l 949 -161 q 758 89 874 -58 q 660 -208 700 -57 q 660 -211 660 -210 q 664 -222 660 -218 q 679 -232 669 -229 q 689 -235 683 -233 l 947 -235 m 106 -274 l 94 -274 q 106 -274 101 -274 m 126 -235 l 122 -240 l 119 -235 l 126 -235 m 126 -235 l 122 -240 l 119 -235 l 126 -235 m 132 -274 l 106 -274 l 132 -274 z "},"x":{"ha":1122,"x_min":-11,"x_max":1007,"o":"m 1007 -278 l 875 -278 l 463 378 q 414 331 438 354 q 366 285 407 325 q 301 224 325 244 q 179 99 233 168 q 101 -157 83 -29 q 131 -235 107 -200 q 189 -278 154 -271 l 1 -278 q 82 18 -11 -133 q 281 258 139 111 q 436 421 396 376 l 1 1110 l 131 1110 l 511 507 q 613 643 565 572 q 685 799 661 718 q 699 966 710 881 q 632 1111 688 1051 l 838 1110 q 860 1076 860 1104 q 856 1026 861 1047 q 664 593 832 810 q 543 457 607 522 l 1007 -278 z "},"y":{"ha":983,"x_min":0,"x_max":867,"o":"m 492 -272 q 426 -278 460 -278 q 372 -274 400 -278 q 367 -260 368 -267 q 366 -240 365 -253 q 367 -225 367 -226 q 367 415 367 96 l 367 440 q 365 483 367 478 q 336 515 363 488 q 282 572 331 522 q 208 650 233 622 q 88 803 140 721 q 3 1031 19 907 q 0 1068 0 1050 q 3 1101 0 1085 q 82 1108 26 1107 q 163 1101 138 1108 q 162 1097 163 1099 q 158 1092 161 1094 q 153 1089 154 1090 q 101 972 107 1047 q 100 950 100 961 q 122 836 100 890 q 201 706 150 764 q 272 633 229 674 q 375 539 299 607 q 393 525 383 531 q 569 819 453 624 q 743 1111 686 1015 l 864 1111 q 865 1102 867 1108 q 863 1094 864 1096 q 858 1087 863 1092 q 854 1081 854 1082 q 658 753 756 917 q 517 517 536 550 q 493 438 493 481 q 493 436 493 438 q 493 433 493 435 q 493 226 493 336 q 493 -17 493 117 q 493 -224 493 -150 q 492 -272 494 -261 z "},"z":{"ha":1208,"x_min":-15,"x_max":1082,"o":"m 564 386 q 296 126 393 249 q 215 -129 214 21 q 219 -144 217 -137 q 250 -149 235 -147 l 469 -149 l 935 -149 q 924 -128 931 -137 q 894 -90 914 -114 q 865 -54 874 -65 q 810 63 825 -1 q 806 89 806 75 q 819 140 806 117 q 828 149 822 146 q 832 150 828 150 q 836 136 836 149 q 836 132 836 133 q 879 21 836 68 q 946 -43 911 -14 q 989 -79 961 -57 q 1028 -111 1017 -101 q 1074 -165 1056 -133 q 1082 -200 1082 -182 q 1058 -254 1082 -232 q 1014 -274 1040 -274 q 946 -275 968 -274 l 107 -278 l 83 -278 q 69 -253 75 -265 q 57 -17 25 -147 q 142 161 82 81 q 344 382 231 283 q 379 413 357 392 q 382 419 379 413 q 367 428 375 425 q 144 506 253 460 q 100 531 121 515 q 81 597 64 557 q 121 683 83 603 q 135 681 129 683 q 147 672 140 679 q 154 664 154 664 q 451 508 285 551 q 460 507 453 508 q 472 504 468 506 q 486 501 479 501 q 515 511 503 501 q 789 736 679 629 q 829 911 860 807 q 782 968 818 950 q 718 986 751 983 q 667 989 679 989 q 325 983 439 986 q 246 978 285 983 q 193 961 218 974 q 155 919 164 946 q 161 861 146 892 q 171 844 161 860 q 108 817 150 832 q 60 797 67 801 q 3 890 15 824 q 68 1053 -15 989 q 192 1103 124 1094 q 285 1111 239 1111 q 581 1107 350 1111 q 660 1106 604 1107 q 744 1104 715 1104 q 843 1083 796 1104 q 925 1008 899 1061 q 950 936 942 974 q 878 663 979 769 q 751 544 849 631 q 715 513 739 532 q 683 486 690 493 q 671 474 676 481 q 674 467 672 469 q 678 463 676 464 q 684 463 681 463 q 689 463 688 463 q 821 419 779 440 q 901 374 863 400 q 957 324 932 351 q 975 103 1047 219 q 915 32 950 63 q 915 44 915 43 q 919 53 914 46 q 924 61 924 60 q 942 144 942 100 q 935 197 942 171 q 846 317 914 274 q 704 368 790 353 q 626 378 678 372 q 564 386 575 385 z "}}}
